HIERARCHY
ROOT Hips
{
  OFFSET 265.287 66.7526 -254.649
  CHANNELS 6 Xposition Yposition Zposition Zrotation Xrotation Yrotation
  JOINT LeftUpLeg
  {
    OFFSET 8.64259 1.95398 -2.38835
    CHANNELS 3 Zrotation Xrotation Yrotation
    JOINT LeftLeg
    {
      OFFSET 43.7702 0 0
      CHANNELS 3 Zrotation Xrotation Yrotation
      JOINT LeftFoot
      {
        OFFSET 40.6238 0 0
        CHANNELS 3 Zrotation Xrotation Yrotation
        JOINT LeftToeBase
        {
          OFFSET 12.7242 0 0
          CHANNELS 3 Zrotation Xrotation Yrotation
          End Site
          {
            OFFSET 0 0 0
          }
        }
      }
    }
  }
  JOINT RightUpLeg
  {
    OFFSET -8.2249 1.95398 -2.59336
    CHANNELS 3 Zrotation Xrotation Yrotation
    JOINT RightLeg
    {
      OFFSET 43.5653 0 0
      CHANNELS 3 Zrotation Xrotation Yrotation
      JOINT RightFoot
      {
        OFFSET 40.6238 0 0
        CHANNELS 3 Zrotation Xrotation Yrotation
        JOINT RightToeBase
        {
          OFFSET 12.7242 0 0
          CHANNELS 3 Zrotation Xrotation Yrotation
          End Site
          {
            OFFSET 0 0 0
          }
        }
      }
    }
  }
  JOINT Spine
  {
    OFFSET 0.165834 0.87714 6.61349
    CHANNELS 3 Zrotation Xrotation Yrotation
    JOINT Spine1
    {
      OFFSET 7.38963 1.71661e-005 0
      CHANNELS 3 Zrotation Xrotation Yrotation
      JOINT Spine2
      {
        OFFSET 11.9445 1.14441e-005 0
        CHANNELS 3 Zrotation Xrotation Yrotation
        JOINT Spine3
        {
          OFFSET 14.7254 4.19617e-005 0
          CHANNELS 3 Zrotation Xrotation Yrotation
          JOINT Spine4
          {
            OFFSET 10.9679 0 0
            CHANNELS 3 Zrotation Xrotation Yrotation
            JOINT RightShoulder
            {
              OFFSET 2.46616 -1.6653 3.69651
              CHANNELS 3 Zrotation Xrotation Yrotation
              JOINT RightArm
              {
                OFFSET 13.0012 0 0
                CHANNELS 3 Zrotation Xrotation Yrotation
                JOINT RightForeArm
                {
                  OFFSET 28.7848 1.52588e-005 0
                  CHANNELS 3 Zrotation Xrotation Yrotation
                  JOINT RightHand
                  {
                    OFFSET 26.5688 1.52588e-005 0
                    CHANNELS 3 Zrotation Xrotation Yrotation
                    End Site
                    {
                      OFFSET 0 0 0
                    }
                  }
                }
              }
            }
            JOINT LeftShoulder
            {
              OFFSET 2.38034 -1.29275 -3.7523
              CHANNELS 3 Zrotation Xrotation Yrotation
              JOINT LeftArm
              {
                OFFSET 16.3182 6.10351e-005 0
                CHANNELS 3 Zrotation Xrotation Yrotation
                JOINT LeftForeArm
                {
                  OFFSET 27.0901 0 0
                  CHANNELS 3 Zrotation Xrotation Yrotation
                  JOINT LeftHand
                  {
                    OFFSET 24.5451 1.52588e-005 0
                    CHANNELS 3 Zrotation Xrotation Yrotation
                    End Site
                    {
                      OFFSET 0 0 0
                    }
                  }
                }
              }
            }
            JOINT Neck
            {
              OFFSET 5.0226 -0.0266342 0
              CHANNELS 3 Zrotation Xrotation Yrotation
              JOINT Head
              {
                OFFSET 6.69364 2.86102e-005 0
                CHANNELS 3 Zrotation Xrotation Yrotation
                End Site
                {
                  OFFSET 0 0 0
                }
              }
            }
          }
        }
      }
    }
  }
}
MOTION
Frames:	10
Frame Time:	0.0416667
-231.256 91.7089 233.667 95.0423 41.0452 100.872 -164.688 17.6578 105.736 -35.7384 29.1907 -0.552132 69.5281 7.58307 15.6662 36.0225 -2.1357 -2.35923 -178.125 16.7225 105.756 -54.2619 -4.71982 -0.677812 43.248 6.41528 21.3508 36.1505 -1.34133 5.66842 0.934929 7.30266 -91.5216 12.2749 1.13681 -3.16521 0.6005 0.996504 -3.21213 -21.915 2.03521 -2.67778 -1.90237 2.03522 -2.67778 101.499 -52.6523 -83.174 29.0802 -25.923 7.0497 3.59639 8.16139 -77.5903 -4.51011 -0.131927 -2.01708 -84.4931 -48.4919 86.6006 -25.8693 22.7616 -2.45392 -12.8865 -14.9278 -62.096 0.123978 -0.302283 -14.0644 6.36113 1.52861 -5.85748 -12.0815 1.61114 13.6773 
-225.74 92.4296 228.144 96.4386 37.947 98.7193 -160.564 7.48523 106.496 -27.2062 28.661 -3.21579 70.0579 7.96304 17.1139 37.4647 -2.59485 -2.90813 -176.124 20.803 104.964 -39.7741 -4.1625 -0.588406 48.0757 5.03085 16.3974 41.1627 -1.80681 5.07987 1.10487 7.34176 -91.4155 12.2029 1.52598 -2.99468 0.529202 1.39275 -3.05888 -21.9938 2.35522 -2.39809 -1.98118 2.35522 -2.39809 103.198 -52.713 -80.6112 28.617 -26.6153 6.71459 3.03628 8.213 -78.0496 -4.17851 -0.137295 -1.59314 -84.1939 -47.9342 86.9953 -24.3929 25.5129 -5.19157 -14.6727 -16.4109 -60.9097 1.71486 -0.438542 -14.217 6.334 1.96403 -6.85395 -13.6155 2.06732 13.4818 
-220.439 92.1662 222.921 99.5568 36.4478 94.9298 -158.647 -2.88638 106.549 -22.2776 25.4295 -4.07231 71.1903 7.97719 15.8316 39.6163 -3.34298 -1.20585 -172.53 17.4452 103.052 -12.9189 -1.78512 -3.03005 47.4712 6.5695 19.7235 40.1961 -1.63759 -0.412466 1.26127 7.55989 -91.255 11.7718 1.91889 -2.7042 0.0992435 1.79806 -2.78597 -22.4335 2.64273 -2.00272 -2.42082 2.64274 -2.00272 104.288 -52.8253 -78.9714 29.8956 -24.3315 7.54289 0.983253 7.56383 -78.117 -1.88531 -0.0555793 -2.46068 -84.1186 -47.8237 87.0992 -23.3344 26.9557 -6.92552 -13.9267 -16.1787 -60.3022 2.69206 -0.452632 -12.5045 6.48825 1.82325 -7.46037 -14.7229 1.96897 13.0819 
-214.779 91.267 217.511 103.981 36.2902 90.4363 -157.948 -11.4133 106.858 -23.492 25.8592 -3.37957 70.5915 7.74076 15.2046 44.0574 -4.61531 2.72978 -172.487 15.5682 101.759 -5.55573 6.58904 -4.88806 52.9657 7.12853 29.831 42.2975 -1.96327 -3.33306 1.29976 7.8979 -91.1723 11.096 2.04332 -2.5305 -0.576012 1.93 -2.61793 -23.1127 2.70922 -1.79953 -3.10008 2.70924 -1.79952 105.076 -53.073 -77.7997 31.6401 -22.9836 8.62807 3.02004 7.68648 -79.0611 -3.91824 -0.125489 -1.8294 -84.0008 -48.53 87.3632 -22.7767 27.2614 -7.35121 -14.3673 -16.4454 -59.5821 2.15612 -0.463424 -13.8026 7.177 1.43014 -7.81749 -15.6828 1.53618 13.531 
-208.342 90.7418 211.382 105.489 36.9398 88.4783 -161.249 -15.4841 104.983 -30.1864 24.6124 0.689307 64.5842 3.69511 9.24458 53.4489 -7.10387 4.1561 -173.516 13.1155 101.074 -8.62967 -4.77394 -2.67422 41.9437 8.5413 16.1925 40.9613 -1.73499 -4.00564 1.12364 7.94696 -91.2831 10.9933 1.64265 -2.70969 -0.679551 1.52185 -2.77931 -23.2082 2.38092 -2.09104 -3.19552 2.3809 -2.09105 104.518 -53.0847 -78.6371 32.1489 -22.0666 9.2446 3.46032 7.53342 -78.8972 -5.42593 -0.212746 -0.679137 -83.9343 -50.2987 87.6611 -24.9493 24.933 -4.13022 -14.8744 -16.7266 -58.9832 0.957821 -0.356193 -13.4898 7.58505 2.11408 -6.43896 -16.0394 1.89779 13.6399 
-202.191 90.5163 205.458 102.901 38.6968 90.1573 -166.38 -6.14226 103.629 -47.0679 15.996 2.86913 48.3392 -3.48281 -1.20795 56.4606 -9.25253 -4.74168 -175.73 18.3205 101.217 -24.9683 -8.50873 -1.55652 48.825 6.99011 10.3326 31.5423 -0.249272 -1.59167 0.976062 7.61822 -91.5056 11.6452 1.23581 -3.12976 -0.0290696 1.09693 -3.18105 -22.5464 2.119 -2.6142 -2.53371 2.11898 -2.6142 103.945 -52.5524 -79.4782 31.6375 -22.1262 9.93651 3.05516 7.56637 -78.3868 -4.41001 -0.144667 -1.54347 -83.9611 -49.9168 87.5786 -29.2869 23.3626 -0.0449991 -14.4499 -16.3154 -59.1362 0.963093 -0.392303 -14.7089 7.78068 2.11889 -6.88313 -15.4792 1.93849 14.8934 
-196.383 90.9858 200.246 99.7835 41.3982 91.9026 -171.132 9.07719 101.626 -64.5689 11.2519 2.88092 49.6473 -1.88434 7.83348 50.9477 -6.91943 -0.988916 -178.078 18.2109 100.978 -31.2828 -6.20894 -0.767668 57.1442 4.36471 9.97232 30.6494 -0.249389 -0.0327888 1.03527 7.4446 -91.5571 11.9932 1.32384 -3.24967 0.318766 1.1796 -3.30471 -22.1975 2.23896 -2.70218 -2.18487 2.23897 -2.70218 103.696 -51.8699 -79.8347 30.4891 -21.8865 9.02844 2.97584 7.67691 -79.1083 -3.49722 -0.125292 -1.18585 -84.2653 -49.3237 87.0493 -28.2796 25.2148 -3.33457 -14.2547 -16.3831 -58.3982 0.903639 -0.369457 -14.0917 8.48309 0.700833 -7.61777 -12.9908 1.17701 13.5336 
-190.898 92.2481 194.728 94.6742 42.2359 93.0545 -171.921 22.0449 96.5136 -61.8699 8.99248 1.47113 56.5749 1.71527 11.2511 48.1804 -5.89643 1.18895 -179.611 15.9828 98.271 -30.7022 -6.53116 -0.713148 61.4688 3.1123 10.7714 30.6718 -0.388171 1.12686 1.1697 7.11286 -91.2254 12.6647 1.73835 -2.6554 0.992051 1.61983 -2.72928 -21.5387 2.45589 -2.01046 -1.52605 2.45588 -2.01046 103.046 -51.6562 -80.8223 29.6432 -22.8198 7.83064 3.97175 7.98177 -78.7261 -3.93642 -0.123009 -1.71969 -84.0902 -49.0853 87.2894 -26.1063 25.9333 -6.1369 -13.1093 -15.8184 -58.6111 0.820557 -0.375189 -14.5738 7.78729 -0.0647451 -6.91245 -12.1192 0.515215 11.2914 
-185.593 93.1852 188.911 91.8198 42.6938 93.1412 -172.346 25.7131 92.1904 -40.6464 8.34918 0.414581 56.623 1.25237 10.2653 49.942 -6.26553 2.92402 178.552 10.2772 95.2705 -26.7867 -4.67857 -0.304656 66.4053 2.00435 15.9382 28.1739 0.181704 -0.774021 1.11271 6.98071 -90.9826 12.9263 1.73802 -2.17522 1.25461 1.64064 -2.24959 -21.2815 2.31134 -1.55239 -1.26879 2.31134 -1.5524 102.426 -51.142 -81.7658 28.9651 -24.6471 5.88492 4.67135 8.29459 -79.0225 -4.88625 -0.15146 -1.76405 -83.7158 -50.3333 87.9944 -24.9141 23.5059 -6.27235 -13.806 -15.6553 -60.3991 -0.430476 -0.253855 -13.984 7.32007 0.383533 -5.57985 -11.481 0.738438 10.9771 
-180.13 93.4299 182.896 92.9769 44.0975 91.8961 -174.922 21.2459 90.1031 -11.8465 7.5297 1.37012 54.3338 -0.401323 9.00098 50.5423 -6.61374 0.934841 177.159 1.78354 94.2387 -22.7243 -1.68035 -0.0245331 68.7253 1.96397 20.4683 28.278 0.250904 -1.48998 0.873495 7.17467 -90.9204 12.5329 1.29704 -1.9893 0.860959 1.20825 -2.04444 -21.6716 1.83487 -1.50763 -1.65892 1.83487 -1.50764 101.747 -51.3329 -82.8076 27.0056 -26.1753 3.93283 5.6423 8.65511 -80.0949 -5.93553 -0.212102 -1.08534 -83.5494 -51.2515 88.3378 -25.0877 20.7417 -5.64415 -13.4134 -14.9155 -61.9473 -1.84559 -0.133701 -13.876 7.17849 1.04355 -4.69104 -10.1098 1.30178 11.4677 
